# xmcd
#
# Track frame offsets: 
#        150
#        19268
#        34818
#        57135
#        70693
#        86318
#        101538
#        120555
#        142045
#        158258
#        176400
#        189748
#        205478
#        219983
#        240768
#        258785
#        273295
#        290443
#        307360
#
# Disc length: 4298 seconds
#
# Revision: 4
# Processed by: cddbd v1.5.2PL0 Copyright (c) Steve Scherf et al.
# Submitted via: ExactAudioCopy v1.0b4
#
DISCID=0410c813
DTITLE=Clifton Chenier - Sings The Blues
DYEAR=1992
DGENRE=Cajun, Zydeco, Blues
TTITLE0=Ain't No Need of Cryin'
TTITLE1=Rosemary
TTITLE2=Brown Skinned Woman
TTITLE3=Done Got Over
TTITLE4=Gone a la Maison
TTITLE5=Be My Chauffeur
TTITLE6=My Little Angel
TTITLE7=Paper in My Shoe
TTITLE8=Blues After Hours
TTITLE9=Trouble in Mind
TTITLE10=In The Mood
TTITLE11=Worried Life Blues
TTITLE12=Grand Prix
TTITLE13=Hungry Man Blues
TTITLE14=Falksy Girl
TTITLE15=Easy, Easy Baby
TTITLE16=Tante Na Na
TTITLE17=Do Right Sometime
TTITLE18=Highway Blues
EXTD=
EXTT0=
EXTT1=
EXTT2=
EXTT3=
EXTT4=
EXTT5=
EXTT6=
EXTT7=
EXTT8=
EXTT9=
EXTT10=
EXTT11=
EXTT12=
EXTT13=
EXTT14=
EXTT15=
EXTT16=
EXTT17=
EXTT18=
PLAYORDER=
